<svg xmlns="http://www.w3.org/2000/svg" viewBox="0 0 500 500"><g id="freepik--background-complete--inject-256"><rect x="380.75" y="359.92" width="40.88" height="15.53" style="fill:#e0e0e0"></rect><rect x="380.75" y="338.34" width="40.88" height="15.53" style="fill:#e0e0e0"></rect><rect x="380.75" y="316.75" width="40.88" height="15.53" style="fill:#e0e0e0"></rect><rect x="380.75" y="295.16" width="40.88" height="15.53" style="fill:#e0e0e0"></rect><rect x="380.75" y="273.58" width="40.88" height="15.53" style="fill:#e0e0e0"></rect><rect x="433.28" y="359.92" width="40.88" height="15.53" style="fill:#e0e0e0"></rect><rect x="433.28" y="338.34" width="40.88" height="15.53" style="fill:#e0e0e0"></rect><rect x="433.28" y="315.86" width="40.88" height="15.53" style="fill:#fafafa"></rect><rect x="433.28" y="294.27" width="40.88" height="15.53" style="fill:#fafafa"></rect><rect x="433.28" y="274.89" width="40.88" height="15.53" style="fill:#fafafa"></rect><rect x="433.28" y="253.3" width="40.88" height="15.53" style="fill:#fafafa"></rect><rect x="433.28" y="233.91" width="40.88" height="15.53" style="fill:#fafafa"></rect><rect x="433.28" y="212.33" width="40.88" height="15.53" style="fill:#fafafa"></rect><rect x="381.05" y="229.97" width="40.88" height="15.53" style="fill:#fafafa"></rect><rect x="381.05" y="208.38" width="40.88" height="15.53" style="fill:#fafafa"></rect><rect x="381.05" y="189" width="40.88" height="15.53" style="fill:#fafafa"></rect><rect x="381.05" y="167.41" width="40.88" height="15.53" style="fill:#fafafa"></rect><rect x="381.05" y="148.03" width="40.88" height="15.53" style="fill:#fafafa"></rect><rect x="381.05" y="126.44" width="40.88" height="15.53" style="fill:#fafafa"></rect><rect x="325.13" y="188.96" width="40.88" height="15.53" style="fill:#fafafa"></rect><rect x="325.13" y="167.38" width="40.88" height="15.53" style="fill:#fafafa"></rect><rect x="325.13" y="147.99" width="40.88" height="15.53" style="fill:#fafafa"></rect><rect x="325.13" y="126.4" width="40.88" height="15.53" style="fill:#fafafa"></rect><rect x="325.13" y="107.02" width="40.88" height="15.53" style="fill:#fafafa"></rect><rect x="325.13" y="85.43" width="40.88" height="15.53" style="fill:#fafafa"></rect><rect x="213.5" y="250.39" width="40.88" height="15.53" style="fill:#fafafa"></rect><rect x="213.5" y="228.81" width="40.88" height="15.53" style="fill:#fafafa"></rect><rect x="213.5" y="209.42" width="40.88" height="15.53" style="fill:#fafafa"></rect><rect x="213.5" y="187.83" width="40.88" height="15.53" style="fill:#fafafa"></rect><rect x="213.5" y="168.45" width="40.88" height="15.53" style="fill:#fafafa"></rect><rect x="213.5" y="146.86" width="40.88" height="15.53" style="fill:#fafafa"></rect><rect x="102.95" y="231.28" width="40.88" height="15.53" style="fill:#fafafa"></rect><rect x="102.95" y="209.69" width="40.88" height="15.53" style="fill:#fafafa"></rect><rect x="102.95" y="190.31" width="40.88" height="15.53" style="fill:#fafafa"></rect><rect x="102.95" y="168.72" width="40.88" height="15.53" style="fill:#fafafa"></rect><rect x="102.95" y="149.34" width="40.88" height="15.53" style="fill:#fafafa"></rect><rect x="102.95" y="127.75" width="40.88" height="15.53" style="fill:#fafafa"></rect><rect x="158.1" y="170.19" width="40.88" height="15.53" style="fill:#fafafa"></rect><rect x="158.1" y="148.6" width="40.88" height="15.53" style="fill:#fafafa"></rect><rect x="158.1" y="129.22" width="40.88" height="15.53" style="fill:#fafafa"></rect><rect x="158.1" y="107.63" width="40.88" height="15.53" style="fill:#fafafa"></rect><rect x="158.1" y="88.24" width="40.88" height="15.53" style="fill:#fafafa"></rect><rect x="158.1" y="66.66" width="40.88" height="15.53" style="fill:#fafafa"></rect><rect x="46.39" y="272.24" width="40.88" height="15.53" style="fill:#fafafa"></rect><rect x="46.39" y="250.65" width="40.88" height="15.53" style="fill:#fafafa"></rect><rect x="46.39" y="231.27" width="40.88" height="15.53" style="fill:#fafafa"></rect><rect x="46.39" y="209.68" width="40.88" height="15.53" style="fill:#fafafa"></rect><rect x="46.39" y="190.3" width="40.88" height="15.53" style="fill:#fafafa"></rect><rect x="46.39" y="168.71" width="40.88" height="15.53" style="fill:#fafafa"></rect><rect x="46.24" y="359.92" width="40.88" height="15.53" style="fill:#e0e0e0"></rect><rect x="46.24" y="338.34" width="40.88" height="15.53" style="fill:#e0e0e0"></rect><rect x="46.24" y="316.75" width="40.88" height="15.53" style="fill:#e0e0e0"></rect><rect x="46.24" y="295.16" width="40.88" height="15.53" style="fill:#e0e0e0"></rect><rect x="101.99" y="359.92" width="40.88" height="15.53" style="fill:#e0e0e0"></rect><rect x="101.99" y="338.34" width="40.88" height="15.53" style="fill:#e0e0e0"></rect><rect x="101.99" y="316.75" width="40.88" height="15.53" style="fill:#e0e0e0"></rect><rect x="101.99" y="295.16" width="40.88" height="15.53" style="fill:#e0e0e0"></rect><rect x="101.99" y="273.58" width="40.88" height="15.53" style="fill:#e0e0e0"></rect><rect x="101.99" y="252.92" width="40.88" height="15.53" style="fill:#e0e0e0"></rect><rect x="213.5" y="359.92" width="40.88" height="15.53" style="fill:#e0e0e0"></rect><rect x="213.5" y="338.34" width="40.88" height="15.53" style="fill:#e0e0e0"></rect><rect x="213.5" y="316.75" width="40.88" height="15.53" style="fill:#e0e0e0"></rect><rect x="213.5" y="295.16" width="40.88" height="15.53" style="fill:#e0e0e0"></rect><rect x="213.5" y="273.58" width="40.88" height="15.53" style="fill:#e0e0e0"></rect><rect x="325" y="360.57" width="40.88" height="15.53" style="fill:#e0e0e0"></rect><rect x="325" y="338.99" width="40.88" height="15.53" style="fill:#e0e0e0"></rect><rect x="325" y="317.4" width="40.88" height="15.53" style="fill:#e0e0e0"></rect><rect x="325" y="295.81" width="40.88" height="15.53" style="fill:#e0e0e0"></rect><rect x="325" y="274.23" width="40.88" height="15.53" style="fill:#e0e0e0"></rect><rect x="325" y="253.22" width="40.88" height="15.53" style="fill:#e0e0e0"></rect><rect x="325" y="232.22" width="40.88" height="15.53" style="fill:#e0e0e0"></rect><rect x="325" y="211.22" width="40.88" height="15.53" style="fill:#e0e0e0"></rect><rect x="380.75" y="252.92" width="40.88" height="15.53" style="fill:#e0e0e0"></rect><rect x="157.74" y="360.57" width="40.88" height="15.53" style="fill:#e0e0e0"></rect><rect x="157.74" y="338.99" width="40.88" height="15.53" style="fill:#e0e0e0"></rect><rect x="157.74" y="317.4" width="40.88" height="15.53" style="fill:#e0e0e0"></rect><rect x="157.74" y="295.81" width="40.88" height="15.53" style="fill:#e0e0e0"></rect><rect x="157.74" y="274.23" width="40.88" height="15.53" style="fill:#e0e0e0"></rect><rect x="157.74" y="253.22" width="40.88" height="15.53" style="fill:#e0e0e0"></rect><rect x="157.74" y="232.22" width="40.88" height="15.53" style="fill:#e0e0e0"></rect><rect x="157.74" y="211.22" width="40.88" height="15.53" style="fill:#e0e0e0"></rect><rect x="157.74" y="190.22" width="40.88" height="15.53" style="fill:#e0e0e0"></rect><rect x="269.25" y="360.57" width="40.88" height="15.53" style="fill:#e0e0e0"></rect><rect x="269.25" y="338.99" width="40.88" height="15.53" style="fill:#e0e0e0"></rect><rect x="269.25" y="317.4" width="40.88" height="15.53" style="fill:#e0e0e0"></rect><rect x="269.25" y="295.81" width="40.88" height="15.53" style="fill:#e0e0e0"></rect><rect x="269.25" y="274.23" width="40.88" height="15.53" style="fill:#e0e0e0"></rect><rect x="269.25" y="253.22" width="40.88" height="15.53" style="fill:#e0e0e0"></rect><rect x="269.25" y="232.22" width="40.88" height="15.53" style="fill:#e0e0e0"></rect><path d="M122.88,97.93l.59,1.08a10,10,0,0,0,4,4l1.08.59-1.08.6a10,10,0,0,0-4,4l-.59,1.09-.6-1.09a9.93,9.93,0,0,0-4-4l-1.09-.6,1.09-.59a10,10,0,0,0,4-4Z" style="fill:#e0e0e0"></path><path d="M355.86,175.51l.6,1.09a9.89,9.89,0,0,0,4,4l1.08.6-1.08.59a9.91,9.91,0,0,0-4,4l-.6,1.08-.59-1.08a9.91,9.91,0,0,0-4-4l-1.08-.59,1.08-.6a9.89,9.89,0,0,0,4-4Z" style="fill:#e0e0e0"></path><path d="M421.93,63.59l.59,1.08a9.91,9.91,0,0,0,4,4l1.08.6-1.08.59a10,10,0,0,0-4,4l-.59,1.08-.6-1.08a10,10,0,0,0-4-4l-1.09-.59,1.09-.6a9.89,9.89,0,0,0,4-4Z" style="fill:#e0e0e0"></path><path d="M54.65,70.58l.88,1.62a14.87,14.87,0,0,0,5.91,5.91l1.61.88-1.61.88a14.87,14.87,0,0,0-5.91,5.91l-.88,1.62-.89-1.62a14.87,14.87,0,0,0-5.91-5.91L46.24,79l1.61-.88a14.87,14.87,0,0,0,5.91-5.91Z" style="fill:#e0e0e0"></path><path d="M64.83,61.77l.39.71a6.63,6.63,0,0,0,2.62,2.63l.72.39-.72.39a6.63,6.63,0,0,0-2.62,2.63l-.39.72-.4-.72a6.57,6.57,0,0,0-2.62-2.63l-.72-.39.72-.39a6.57,6.57,0,0,0,2.62-2.63Z" style="fill:#e0e0e0"></path><path d="M275.71,40.34l.88,1.61a14.83,14.83,0,0,0,5.92,5.91l1.61.89-1.61.88a15,15,0,0,0-5.92,5.91l-.88,1.62-.88-1.62a15,15,0,0,0-5.91-5.91l-1.62-.88,1.62-.89A14.87,14.87,0,0,0,274.83,42Z" style="fill:#e0e0e0"></path><path d="M316.1,62.92l.39.72a6.65,6.65,0,0,0,2.63,2.63l.71.39-.71.39a6.65,6.65,0,0,0-2.63,2.63l-.39.71-.39-.71a6.65,6.65,0,0,0-2.63-2.63l-.72-.39.72-.39a6.65,6.65,0,0,0,2.63-2.63Z" style="fill:#e0e0e0"></path><path d="M463.06,148.1l.88,1.61a14.81,14.81,0,0,0,5.91,5.91l1.62.89-1.62.88a14.93,14.93,0,0,0-5.91,5.91l-.88,1.62-.89-1.62a14.87,14.87,0,0,0-5.91-5.91l-1.61-.88,1.61-.89a14.75,14.75,0,0,0,5.91-5.91Z" style="fill:#e0e0e0"></path><path d="M454.65,132.88l.39.72a6.57,6.57,0,0,0,2.63,2.62l.71.39-.71.4a6.57,6.57,0,0,0-2.63,2.62l-.39.72-.39-.72a6.57,6.57,0,0,0-2.63-2.62l-.72-.4.72-.39a6.57,6.57,0,0,0,2.63-2.62Z" style="fill:#e0e0e0"></path><path d="M97.15,216.16l.89,1.61a14.81,14.81,0,0,0,5.91,5.91l1.61.88-1.61.89A14.75,14.75,0,0,0,98,231.36L97.15,233l-.88-1.61a14.75,14.75,0,0,0-5.91-5.91l-1.61-.89,1.61-.88a14.81,14.81,0,0,0,5.91-5.91Z" style="fill:#e0e0e0"></path><path d="M31.62,189l.39.72a6.57,6.57,0,0,0,2.63,2.62l.71.4-.71.39A6.63,6.63,0,0,0,32,195.71l-.39.72-.39-.72a6.63,6.63,0,0,0-2.63-2.62l-.72-.39.72-.4a6.57,6.57,0,0,0,2.63-2.62Z" style="fill:#e0e0e0"></path></g><g id="freepik--Table--inject-256"><path d="M490.47,421.44c0,.15-107.67.26-240.46.26s-240.48-.11-240.48-.26,107.65-.26,240.48-.26S490.47,421.3,490.47,421.44Z" style="fill:#263238"></path></g><g id="freepik--Device--inject-256"><rect x="9.78" y="442.36" width="480.44" height="21.47" style="fill:#263238"></rect><path d="M29.4,409.92c-.27.84-19.62,32.44-19.62,32.44H490.22l-15.78-32.44Z" style="fill:#455a64"></path><path d="M248.51,450.83a2.25,2.25,0,1,1-2.25-2.34A2.3,2.3,0,0,1,248.51,450.83Z" style="fill:#455a64"></path><path d="M271,450.83a2.25,2.25,0,1,1-2.25-2.34A2.3,2.3,0,0,1,271,450.83Z" style="fill:#455a64"></path><path d="M259.32,450.83s-.06-.2-.17-.54a2.33,2.33,0,0,0-.81-1.16,2,2,0,0,0-1.95-.27,2.16,2.16,0,0,0,0,3.95,2,2,0,0,0,1.95-.27,2.35,2.35,0,0,0,.81-1.17c.11-.33.13-.54.17-.54s.08.21,0,.59a2.28,2.28,0,0,1-.78,1.4,2.33,2.33,0,0,1-2.36.43,2.61,2.61,0,0,1,0-4.84,2.33,2.33,0,0,1,2.36.43,2.3,2.3,0,0,1,.78,1.41C259.4,450.63,259.35,450.83,259.32,450.83Z" style="fill:#455a64"></path><path d="M234.12,459.42s0-.34-.05-.95,0-1.55,0-2.62c0-2.29-.07-5.45-.11-9.23l.21.22-15.18,0c-.06.06.49-.49.26-.25h0v3.4c0,1.12,0,2.22,0,3.29,0,2.15,0,4.19,0,6.08l-.23-.23,10.91.12,3.13.06c.73,0,1.13,0,1.14.05a6.48,6.48,0,0,1-1.05.06l-3.07.06-11.06.12h-.23v-.24c0-1.89,0-3.93,0-6.08v-6.69h0c-.24.23.31-.32.26-.27l15.18,0h.23v.21c0,3.84-.08,7-.11,9.37,0,1.05,0,1.91-.06,2.56A4.1,4.1,0,0,1,234.12,459.42Z" style="fill:#455a64"></path><path d="M232.35,450.34a1.77,1.77,0,1,1-1.77-1.85A1.81,1.81,0,0,1,232.35,450.34Z" style="fill:#455a64"></path><path d="M232.35,455.71a1.77,1.77,0,1,1-1.77-1.86A1.81,1.81,0,0,1,232.35,455.71Z" style="fill:#455a64"></path><path d="M225.31,436.93c-.15,0-.69-4.94-1.22-11.07s-.83-11.1-.69-11.11.69,4.94,1.21,11.07S225.45,436.92,225.31,436.93Z" style="fill:#263238"></path><path d="M245.43,436.93c-.15,0-.69-4.94-1.22-11.07s-.83-11.1-.69-11.11.69,4.94,1.21,11.07S245.57,436.92,245.43,436.93Z" style="fill:#263238"></path><path d="M265.54,436.93c-.14,0-.68-4.94-1.21-11.07s-.83-11.1-.69-11.11.69,4.94,1.21,11.07S265.69,436.92,265.54,436.93Z" style="fill:#263238"></path><path d="M285.66,436.93c-.14,0-.68-4.94-1.21-11.07s-.83-11.1-.69-11.11.68,4.94,1.21,11.07S285.81,436.92,285.66,436.93Z" style="fill:#263238"></path><path d="M305.78,436.93c-.14,0-.68-4.94-1.21-11.07s-.83-11.1-.69-11.11.68,4.94,1.21,11.07S305.93,436.92,305.78,436.93Z" style="fill:#455a64"></path><ellipse cx="128.66" cy="426.65" rx="59.22" ry="12.4" style="fill:#263238"></ellipse><ellipse cx="128.66" cy="420.84" rx="59.22" ry="12.4" style="fill:#e0e0e0"></ellipse><g style="opacity:0.30000000000000004"><path d="M127.94,420.84l14.83-12s23.59.81,34.4,5.16Z" style="fill:#fff"></path></g><g style="opacity:0.30000000000000004"><path d="M74.8,426l49.91-6.52h3.23l-24.34,12.6S83.26,430.41,74.8,426Z" style="fill:#fff"></path></g><path d="M158.27,419.48c0,3-13.26,5.53-29.61,5.53s-29.61-2.48-29.61-5.53S112.31,414,128.66,414,158.27,416.43,158.27,419.48Z" style="fill:#f5f5f5"></path><path d="M129.3,420.65a1.82,1.82,0,0,1-2.73,0v-5.44a2.54,2.54,0,0,1,2.73,0Z" style="fill:#263238"></path><polygon points="48.82 425.88 48.32 425.01 68.82 413.1 97.01 404.85 97.29 405.81 69.16 414.04 48.82 425.88" style="fill:#263238"></polygon><path d="M92.12,404.38v2.08l4.57,1.86s9.12-2.46,9.24-2.37a11.53,11.53,0,0,0,0-1.95l-5.07-1.66Z" style="fill:#263238"></path><rect x="32.93" y="429.03" width="25.19" height="5.63" style="fill:#263238"></rect><path d="M58.12,429c.34-.66,4-8.19,4-8.19H40l-7,8.19Z" style="fill:#e0e0e0"></path><polygon points="62.13 420.84 62.13 426.65 58.12 434.66 58.12 429.03 62.13 420.84" style="fill:#263238"></polygon><ellipse cx="377.71" cy="425.23" rx="59.22" ry="12.4" style="fill:#263238"></ellipse><ellipse cx="377.71" cy="419.42" rx="59.22" ry="12.4" style="fill:#e0e0e0"></ellipse><g style="opacity:0.30000000000000004"><path d="M378.44,419.42l-14.83-12.05s-23.59.81-34.41,5.16Z" style="fill:#fff"></path></g><g style="opacity:0.30000000000000004"><path d="M431.58,424.58l-49.91-6.52h-3.23l24.33,12.6S423.12,429,431.58,424.58Z" style="fill:#fff"></path></g><path d="M348.11,418.06c0,3.05,13.25,5.52,29.6,5.52s29.61-2.47,29.61-5.52-13.25-5.53-29.61-5.53S348.11,415,348.11,418.06Z" style="fill:#f5f5f5"></path><path d="M377.07,419.23a1.83,1.83,0,0,0,2.73,0v-5.44a2.54,2.54,0,0,0-2.73,0Z" style="fill:#263238"></path><polygon points="457.55 424.46 437.21 412.62 409.09 404.39 409.37 403.43 437.66 411.73 458.06 423.59 457.55 424.46" style="fill:#263238"></polygon><path d="M414.25,403V405l-4.56,1.86s-9.13-2.47-9.24-2.37a10.57,10.57,0,0,1,0-1.95l5.07-1.66Z" style="fill:#263238"></path><rect x="448.26" y="427.61" width="25.19" height="5.63" transform="translate(921.71 860.84) rotate(180)" style="fill:#263238"></rect><path d="M448.26,427.61c-.34-.66-4-8.19-4-8.19H466.4l7.05,8.19Z" style="fill:#e0e0e0"></path><polygon points="444.25 419.42 444.25 425.23 448.26 433.24 448.26 427.61 444.25 419.42" style="fill:#263238"></polygon><path d="M204.57,463.83a3.43,3.43,0,0,1,0-.55c0-.41,0-.93-.05-1.57,0-1.44-.05-3.39-.08-5.77,0-4.95,0-11.65-.08-19.06s.06-14.12.08-19.06c0-2.39.06-4.34.08-5.78,0-.63,0-1.15.05-1.57a3.43,3.43,0,0,1,0-.55,2,2,0,0,1,.06.55c0,.42,0,.94,0,1.57,0,1.44.05,3.39.09,5.78,0,4.94,0,11.65.07,19.06s-.05,14.11-.07,19.06c0,2.38-.06,4.33-.09,5.77,0,.64,0,1.16,0,1.57A2,2,0,0,1,204.57,463.83Z" style="fill:#263238"></path><path d="M302.54,442.31c-.14,0-1.23-7.16-2.42-16s-2.05-16.07-1.91-16.09,1.23,7.15,2.42,16S302.68,442.29,302.54,442.31Z" style="fill:#263238"></path><rect x="220.5" y="430.36" width="8.79" height="2.84" style="fill:#263238"></rect><rect x="239.45" y="419.28" width="8.79" height="2.84" style="fill:#263238"></rect><rect x="260.2" y="429.57" width="8.79" height="2.84" style="fill:#263238"></rect><rect x="279.54" y="422.92" width="8.79" height="2.84" style="fill:#263238"></rect></g><g id="freepik--speech-bubble--inject-256"><path d="M196.25,157.81a37.69,37.69,0,0,0,3.48-25.37c-4.39-20.68-24.94-33.9-45.9-29.53s-34.41,24.67-30,45.35,24.94,33.9,45.91,29.53A38.88,38.88,0,0,0,189.57,167l11.09.61Z" style="fill:#fff"></path><path d="M196.25,157.81l.31.64.88,1.88,3.32,7.23.07.16h-.17l-11.1-.57.11,0a39,39,0,0,1-16.84,10.12c-.9.26-1.82.5-2.76.7s-1.91.32-2.89.48c-.48.07-1,.17-1.47.22l-1.5.09-1.53.09-.76,0-.78,0a37.79,37.79,0,0,1-12.67-2.28,39.1,39.1,0,0,1-12-6.87,38,38,0,0,1-9.25-11.4,38.45,38.45,0,0,1-4.33-14.78A37.92,37.92,0,0,1,125,127.61a39.42,39.42,0,0,1,6.31-11.29,39.91,39.91,0,0,1,9.41-8.32l1.31-.81a10.58,10.58,0,0,1,1.35-.76l2.75-1.34a44.42,44.42,0,0,1,11.5-3,42.81,42.81,0,0,1,5.76-.16l1.41.06.71,0,.7.1,2.76.39c.92.16,1.8.42,2.69.62l1.32.33,1.28.44a38.72,38.72,0,0,1,21.9,18.32,38.09,38.09,0,0,1,3,7.57,36.18,36.18,0,0,1,1.35,7.16,37.23,37.23,0,0,1-3.15,18.58c-.34.77-.64,1.33-.84,1.71l-.31.58s.08-.2.26-.59.47-1,.79-1.75a39.38,39.38,0,0,0,2.25-7,37.54,37.54,0,0,0,.71-11.53,35.28,35.28,0,0,0-1.38-7.09,38.17,38.17,0,0,0-24.77-25.55l-1.27-.44-1.31-.32c-.88-.2-1.75-.45-2.65-.61l-2.73-.38-.69-.1-.7,0-1.4-.06a40.69,40.69,0,0,0-17,3.17l-2.72,1.32a10.17,10.17,0,0,0-1.32.75l-1.3.8a39.5,39.5,0,0,0-9.28,8.22,39.1,39.1,0,0,0-6.22,11.14,37.34,37.34,0,0,0-2.08,15.63,37.66,37.66,0,0,0,13.37,25.86,38.9,38.9,0,0,0,11.85,6.81,37.73,37.73,0,0,0,12.53,2.29l.76,0,.76,0,1.51-.08,1.49-.09c.49,0,1-.14,1.46-.21,1-.16,1.92-.28,2.85-.47s1.84-.43,2.74-.68a38.92,38.92,0,0,0,16.74-10l0,0h.06l11.1.66-.1.15c-1.41-3.17-2.49-5.63-3.24-7.31l-.82-1.89C196.33,158,196.25,157.81,196.25,157.81Z" style="fill:#263238"></path><path d="M157.19,152.29a5.86,5.86,0,1,1-3.38-7.56A5.87,5.87,0,0,1,157.19,152.29Z" style="fill:#263238"></path><path d="M157.09,150.17c-.54.16-2.53-5.73-3.43-13.25s-1.38-13.49-.86-13.6,2,5.9,2.87,13.34S157.63,150,157.09,150.17Z" style="fill:#263238"></path><path d="M171.72,124.64c.26.4-3.81,3.11-9.74,3.22a13.63,13.63,0,0,1-7.25-1.72c-1.7-1-2.27-2.21-2.07-2.35s1.08.5,2.7,1.06a18.54,18.54,0,0,0,6.59,1C167.27,125.76,171.48,124.05,171.72,124.64Z" style="fill:#263238"></path><path d="M176.11,153.62a5.85,5.85,0,1,1-3.37-7.57A5.85,5.85,0,0,1,176.11,153.62Z" style="fill:#263238"></path><path d="M176,151.49c-.54.16-2.53-5.73-3.44-13.24s-1.37-13.5-.86-13.61,2,5.9,2.88,13.35S176.56,151.34,176,151.49Z" style="fill:#263238"></path><path d="M172.39,128.59c.33.41-3.39,3.25-8.94,3.55s-9.57-2-9.29-2.49,4.19.8,9.17.46S172.1,128.06,172.39,128.59Z" style="fill:#263238"></path></g><g id="freepik--Character--inject-256"><ellipse cx="239.55" cy="152.16" rx="20.13" ry="16.02" transform="translate(4.51 311.2) rotate(-66.51)" style="fill:#455a64"></ellipse><path d="M291,96.16l-2-.35a39.21,39.21,0,0,0-44.63,28.41c-4.79,18.15-9.85,38.26-11.49,48.16-3.4,20.5,16.69,27.25,16.69,27.25l-3,24.7,47.3,6.69,20.37-88.34C319.83,121.77,312.25,101.12,291,96.16Z" style="fill:#ae7461"></path><path d="M249.38,199.57a51.45,51.45,0,0,0,28.47-3.17S269,211,248.68,205.57Z" style="fill:#6f4439"></path><path d="M248.43,148.23a3,3,0,0,0,2.32,3.44,2.87,2.87,0,0,0,3.51-2.11,3,3,0,0,0-2.32-3.44A2.88,2.88,0,0,0,248.43,148.23Z" style="fill:#263238"></path><path d="M247,135c.3.45,2.83-.8,6-.25s5.22,2.53,5.63,2.21c.2-.14-.05-.89-.93-1.8a8.3,8.3,0,0,0-4.43-2.24,8,8,0,0,0-4.86.68C247.3,134.16,246.85,134.79,247,135Z" style="fill:#263238"></path><path d="M276,151.39a3,3,0,0,0,2.32,3.43,2.87,2.87,0,0,0,3.51-2.1,3,3,0,0,0-2.31-3.44A2.88,2.88,0,0,0,276,151.39Z" style="fill:#263238"></path><path d="M278.1,141c.3.45,2.83-.8,6-.25s5.22,2.53,5.63,2.21c.2-.14-.05-.89-.93-1.8a8.3,8.3,0,0,0-4.43-2.24,7.93,7.93,0,0,0-4.86.68C278.41,140.14,278,140.77,278.1,141Z" style="fill:#263238"></path><path d="M262.41,162.29c0-.18-1.86-.86-5-1.82-.79-.22-1.53-.51-1.57-1.08a4.13,4.13,0,0,1,1-2.29l3.49-5.69c4.89-8.13,8.58-14.86,8.25-15s-4.57,6.23-9.45,14.36c-1.18,2-2.32,3.92-3.4,5.75a4.74,4.74,0,0,0-1,3.08,2.06,2.06,0,0,0,1.12,1.4,5.93,5.93,0,0,0,1.35.43C260.37,162.1,262.37,162.46,262.41,162.29Z" style="fill:#263238"></path><path d="M277.73,130.48c.28.87,3.16.47,6.52,1s6.09,1.5,6.55.73c.2-.37-.27-1.19-1.36-2a10.23,10.23,0,0,0-4.84-1.91,10,10,0,0,0-5.11.63C278.25,129.39,277.62,130.07,277.73,130.48Z" style="fill:#263238"></path><path d="M249.33,123.54c.54.83,3.29.54,6.45,1s5.73,1.48,6.48.84c.33-.31,0-1.1-1-2a10.46,10.46,0,0,0-5-2.07,10.21,10.21,0,0,0-5.39.55C249.59,122.47,249.1,123.14,249.33,123.54Z" style="fill:#263238"></path><path d="M248,115.19s7.74-11.87,14.51-13.78c8.2-2.31,10,6.46,17.54,5.71s15.38-3,21.75,3.8c7,7.42,2.45,11,1.32,20.16-4.56,37.13.37,48.71,5.4,31.72.55-1.87,12.45,1.38,15-20.45,1.21-10.55-2.41-11.57-3.44-19.35-.86-6.56-2.34-12.59-7.92-18.44-8.8-9.23-22.71-11.8-32.34-12.49S250,99,248,115.19Z" style="fill:#263238"></path><path d="M307.31,162a5.71,5.71,0,0,1,7-4.3c3.79,1,7.69,3.93,6,11.77-2.95,13.9-16.44,8.14-16.38,7.73S306,167.82,307.31,162Z" style="fill:#ae7461"></path><path d="M308.13,172.61c.07,0,.21.22.58.49a2.5,2.5,0,0,0,1.82.42c1.6-.24,3.34-2.31,3.94-4.8a8,8,0,0,0,.06-3.61,2.87,2.87,0,0,0-1.45-2.24,1.27,1.27,0,0,0-1.58.37c-.28.35-.25.64-.32.65s-.26-.29,0-.84a1.58,1.58,0,0,1,.74-.76,1.91,1.91,0,0,1,1.42-.08,3.47,3.47,0,0,1,2.1,2.68,8.26,8.26,0,0,1,0,4.05c-.69,2.79-2.69,5.11-4.85,5.27a2.69,2.69,0,0,1-2.16-.82C308.08,173,308.08,172.63,308.13,172.61Z" style="fill:#6f4439"></path><ellipse cx="313.17" cy="166.66" rx="20.13" ry="16.02" transform="translate(35.49 387.44) rotate(-66.51)" style="fill:#455a64"></ellipse><path d="M317.23,151.87a5.66,5.66,0,0,1,.77,0,7.2,7.2,0,0,1,2.2.37,8.3,8.3,0,0,1,3,1.87,11.27,11.27,0,0,1,2.63,3.89,14,14,0,0,1,1,5.63,20.86,20.86,0,0,1-.86,6.54,21.19,21.19,0,0,1-3.37,6.51,16.52,16.52,0,0,1-6.24,4.89h0a7.6,7.6,0,0,1-3.53.67,10,10,0,0,1-7.38-4.08,13.79,13.79,0,0,1-2.47-7.54,20.68,20.68,0,0,1,3.82-12.71,14.51,14.51,0,0,1,7.11-5.45,12.59,12.59,0,0,1,2.41-.51l.64,0h.22s-.29,0-.84.14a13.48,13.48,0,0,0-2.36.6,14.46,14.46,0,0,0-6.88,5.46,20.45,20.45,0,0,0-3.64,12.48,13.32,13.32,0,0,0,2.4,7.25,9.51,9.51,0,0,0,7,3.87,7.22,7.22,0,0,0,3.29-.62h0a16.05,16.05,0,0,0,6-4.71,19.73,19.73,0,0,0,4.21-12.74,13.65,13.65,0,0,0-.93-5.49,11.26,11.26,0,0,0-2.5-3.83,8.42,8.42,0,0,0-2.88-1.89A10.82,10.82,0,0,0,317.23,151.87Z" style="fill:#263238"></path><path d="M239.12,115.09a26.24,26.24,0,0,1,15.06-7c17.23-1.82,40.58.43,60.82,27.9l8.51,6.41s3.22-15.26.59-23.86c-1-3.32-5.86-20.69-31.78-27.65C292.32,90.84,251.75,75.77,239.12,115.09Z" style="fill:#455a64"></path><g style="opacity:0.30000000000000004"><path d="M239.12,115.09a26.24,26.24,0,0,1,15.06-7c17.23-1.82,40.58.43,60.82,27.9l8.51,6.41a80.73,80.73,0,0,0,1.39-10c.37-4.82.23-10.45-.66-13.45-1.17-3.88-6.06-21.1-31.92-28.1C292.32,90.84,251.75,75.77,239.12,115.09Z"></path></g><path d="M315,135.94c-8.12-12.34-19.9-20.67-32.56-27.89s-33.39-14.18-47.63-17.49c-4.28-1-8.73-1.85-13-1s-8.42,3.71-9.35,7.86c-1.15,5.19,8.57,12.93,13.12,16s18.66,11.36,18.66,11.36,3.33-13.25,13.63-14.92C279.24,106.34,315.67,136.46,315,135.94Z" style="fill:#455a64"></path><path d="M316.64,107c-2.71-5.45-5.51-7.92-7.64-10.52a34,34,0,0,0-9.7-6.33c-8.75-3.68-19.77-2-19.77-2,13,1.8,23.8,4.87,26.8,12.49,11.12,20.1,6.45,47.84,6.45,47.84l7.91.54S326,125.94,316.64,107Z" style="fill:#455a64"></path><path d="M323.19,149.23c-.05.07-.67-.37-1.78-.79a12.86,12.86,0,0,0-4.54-.81,31.58,31.58,0,0,0-4.66.38,8.41,8.41,0,0,1-1.95.18,6.79,6.79,0,0,1,1.89-.54,21,21,0,0,1,4.73-.54,11.27,11.27,0,0,1,4.68,1A4.14,4.14,0,0,1,323.19,149.23Z" style="fill:#263238"></path><path d="M267.13,109.87a7.27,7.27,0,0,0-9.07-2.6c-1.49-4.71-4.86-9-9.48-10.74s-10.41-.61-13.43,3.3-2.33,10.38,1.83,13c-2.33,2.6-1.41,7,1.24,9.31s6.43,2.73,9.89,2.31c4.44-.54,9.12-2.81,10.58-7,.11,2.54,2.74,4.48,5.27,4.39A8.23,8.23,0,0,0,270.2,118a21.47,21.47,0,0,0,3.29-6.33Z" style="fill:#263238"></path><path d="M261.78,171l.43-.48,7.79-2.47a2.44,2.44,0,0,1,1.3-.17,2.07,2.07,0,0,1,1.17,1A5.79,5.79,0,1,1,261.78,171Z" style="fill:#6f4439"></path><path d="M264.41,176.77a10.09,10.09,0,0,0,3.93.48,6,6,0,0,0,1.9-.44,5.21,5.21,0,0,0,1.78-1.27,3.64,3.64,0,0,0,.9-2.14,7.29,7.29,0,0,0-.31-2.62c-.13-.45-.27-.9-.43-1.33a6,6,0,0,0-.49-1.18c-.35-.63-1.12-.5-1.88-.2l-4.15,1.54a21,21,0,0,1-3.91,1.22,19.44,19.44,0,0,1,3.69-1.77l4.09-1.71a4.06,4.06,0,0,1,1.39-.33,1.7,1.7,0,0,1,1.45.8,6.59,6.59,0,0,1,.6,1.35c.16.45.31.91.44,1.39a7.83,7.83,0,0,1,.33,2.92,4.39,4.39,0,0,1-1.15,2.57,5.77,5.77,0,0,1-4.21,1.78,7.49,7.49,0,0,1-3-.46C264.68,177.09,264.38,176.81,264.41,176.77Z" style="fill:#263238"></path><path d="M113,381.29c0-.81-.28-16.24,1.91-25.71s16.14-25.7,23.25-34.08,21.88-34.09,27.08-44.92,9-22.63,15.86-27.95a71.45,71.45,0,0,1,12-7.76s.28,67.37,0,68.45-21.6,30.57-25.71,39-18.05,21.64-18.59,22.46-10.67,15.15-10.67,15.15Z" style="fill:#ae7461"></path><path d="M90.06,415.56c-.08-.33,1.6-11.57,3.32-15.31s13.06-10.88,16.16-13.15a8.81,8.81,0,0,0,3.41-5.81l25.16,4.6s-1.22,4.16,0,5.52a100,100,0,0,1,6.15,9.18c1.26,2.16,6,2.5,5.27,5.22s-2.29,4.53-5.27,4.42-4.93-1.25-7.45-1.13-3.44,1.58-7.22-.57a22.94,22.94,0,0,1-6.42-5.9l-4.46.68s-8.48,22.45-11.46,23.13-4.93,1.13-4.7-2.83,4.7-18.94,4.7-18.94V402s-4.13,3.18-4.82,5.56a42.18,42.18,0,0,1-3,8.24c-3,5-6.14.7-6.14.7h0S90.63,418.05,90.06,415.56Z" style="fill:#ae7461"></path><path d="M124.87,402a6.06,6.06,0,0,1-1.28.33c-.83.17-2,.4-3.56.61s-3.31.41-5.32.55a6.41,6.41,0,0,1-3.22-.36,2.3,2.3,0,0,1-1.21-1.36,2.86,2.86,0,0,1,.08-1.85,4.31,4.31,0,0,1,1-1.51,5.66,5.66,0,0,1,1.4-1c1-.46,1.92-.94,2.8-1.43,1.75-1,3.31-1.88,4.64-2.63s2.42-1.31,3.19-1.67a5.56,5.56,0,0,1,1.23-.49,7.81,7.81,0,0,1-1.14.67c-.74.41-1.8,1-3.1,1.81s-2.83,1.74-4.59,2.73c-.87.5-1.82,1-2.8,1.47a4.7,4.7,0,0,0-2.15,2.27,2.38,2.38,0,0,0-.08,1.51,1.82,1.82,0,0,0,1,1.07,6.18,6.18,0,0,0,3,.33c2-.11,3.8-.27,5.31-.44s2.72-.33,3.56-.44A6.75,6.75,0,0,1,124.87,402Z" style="fill:#6f4439"></path><path d="M140.64,399.22a46.31,46.31,0,0,0-4.23,3.35,42.66,42.66,0,0,0-3.37,4.21,10.8,10.8,0,0,1,3-4.58A11.06,11.06,0,0,1,140.64,399.22Z" style="fill:#6f4439"></path><path d="M141.16,404.14c-.06,0,0-.35.3-.78a3.46,3.46,0,0,1,1.59-1.22,3.57,3.57,0,0,1,2-.13c.5.13.76.33.73.39a7.72,7.72,0,0,0-2.55.23C141.9,403.12,141.29,404.22,141.16,404.14Z" style="fill:#6f4439"></path><path d="M106.44,393.15c0,.08-1.41.78-3.61,2.1A18.88,18.88,0,0,0,99.27,398a11,11,0,0,0-2.76,4.61c-.57,1.85-.86,3.72-1.24,5.38s-.68,3.14-1,4.44-.5,2.17-.69,3a4.7,4.7,0,0,1-.33,1.08,4.83,4.83,0,0,1,.13-1.12c.14-.82.32-1.83.53-3s.54-2.81.85-4.45.63-3.53,1.22-5.45a11,11,0,0,1,2.92-4.79,17.74,17.74,0,0,1,3.7-2.69c1.14-.64,2.09-1.08,2.75-1.38A4.6,4.6,0,0,1,106.44,393.15Z" style="fill:#6f4439"></path><path d="M111.67,395.46a17,17,0,0,1-5,5.92,21.59,21.59,0,0,1,2.41-3A22.63,22.63,0,0,1,111.67,395.46Z" style="fill:#6f4439"></path><path d="M159.59,345c-.1,0-.3-1.37-1.06-3.46a23.88,23.88,0,0,0-1.64-3.54,24.11,24.11,0,0,0-6.27-7.12,23.89,23.89,0,0,0-3.3-2.08c-2-1-3.31-1.42-3.28-1.52a4,4,0,0,1,1,.22,8.28,8.28,0,0,1,1.09.37,12.87,12.87,0,0,1,1.41.6,20.13,20.13,0,0,1,3.41,2,23.56,23.56,0,0,1,3.6,3.28,24.31,24.31,0,0,1,2.81,4,21.08,21.08,0,0,1,1.57,3.65,14.41,14.41,0,0,1,.4,1.47,7.64,7.64,0,0,1,.22,1.13A3.43,3.43,0,0,1,159.59,345Z" style="fill:#6f4439"></path><path d="M363,275.08s22.89,54.58,24,59c1.31,5.2-6.89,30.58-6.89,30.58l-23.82-3.22-3.6-21.78L335.8,309.9l1.64-20.19Z" style="fill:#ae7461"></path><path d="M374.49,321.71c0,.1-1.48.44-3.75,1.4a28.77,28.77,0,0,0-3.84,2,29.17,29.17,0,0,0-7.84,7,28.57,28.57,0,0,0-2.39,3.6c-1.2,2.15-1.71,3.61-1.8,3.57a3.79,3.79,0,0,1,.3-1,9,9,0,0,1,.46-1.18,15.45,15.45,0,0,1,.72-1.52,26.19,26.19,0,0,1,2.33-3.72,29.85,29.85,0,0,1,3.63-4,30.18,30.18,0,0,1,4.34-3.17,26.89,26.89,0,0,1,4-1.91c.58-.24,1.12-.39,1.6-.54a10,10,0,0,1,1.22-.33A4,4,0,0,1,374.49,321.71Z" style="fill:#6f4439"></path><path d="M355.79,353.3s-3.83,2.12-7.14,4.42-2.58,3.74-4,3.74-3.95-.43-4.49,2.87,2.77,4.74,8.37,4.17c0,0,4.6,2.44,8.19,1.86s3,.09,3,.09-1,10,3.94,10.11a2.68,2.68,0,0,0,3.09-2.15,53.21,53.21,0,0,0,.72-7.47s3.59,0,4.31,2.73.43,15.22,3.88,16.23,3.88,0,3.88,0V379l.57-3.88s-.14,12.21,1.58,14.08,5.66.58,5.49-.86,0-11.92,0-11.92.26-.72,1.12,2.87-.14,6.89,2.59,7,3.3,1.15,2.87-4.31.57-7.47-1.44-10.34-9.95-14.82-9.95-14.82Z" style="fill:#ae7461"></path><path d="M352.45,360.55c.07,0,.35.51.66,1.44a5.33,5.33,0,0,1,0,3.85,3.83,3.83,0,0,1-1.49,1.61,6.28,6.28,0,0,1-1.61.69,3.71,3.71,0,0,1-1.56.25,6.71,6.71,0,0,1,1.44-.6,4.76,4.76,0,0,0,2.74-2.17,5.57,5.57,0,0,0,.14-3.54A6.47,6.47,0,0,1,352.45,360.55Z" style="fill:#6f4439"></path><path d="M359.07,363.26a12.34,12.34,0,0,1,.62,3.54,12.89,12.89,0,0,1,.09,3.6,25.29,25.29,0,0,1-.71-7.14Z" style="fill:#6f4439"></path><path d="M367.2,373.22a13.36,13.36,0,0,1,.37-2.39,13.9,13.9,0,0,0,0-5.67,6.91,6.91,0,0,0-1.37-2.75,5.47,5.47,0,0,0-2-1.49,6.89,6.89,0,0,0-2.3-.45,3.22,3.22,0,0,1,2.44.11,5.59,5.59,0,0,1,2.23,1.52,6.92,6.92,0,0,1,1.5,2.93,12.36,12.36,0,0,1-.16,5.87A10.07,10.07,0,0,1,367.2,373.22Z" style="fill:#6f4439"></path><path d="M379.39,379a13.31,13.31,0,0,1,.07-2.43,17.26,17.26,0,0,0-.47-5.71,7.93,7.93,0,0,0-3.31-4.47,10.4,10.4,0,0,0-2.2-.86s.23-.05.66,0a5.08,5.08,0,0,1,1.73.55,7.82,7.82,0,0,1,3.62,4.64,15.17,15.17,0,0,1,.34,5.89A9.55,9.55,0,0,1,379.39,379Z" style="fill:#6f4439"></path><path d="M386.85,378.75c-.08,0,.2-.85.32-2.24A10.83,10.83,0,0,0,383.1,367c-1.08-.86-1.88-1.23-1.84-1.31a5.29,5.29,0,0,1,2.06,1,10.22,10.22,0,0,1,4.22,9.83A5.09,5.09,0,0,1,386.85,378.75Z" style="fill:#6f4439"></path><path d="M353,238.06c-6-11.27-22.07-16.85-22.07-16.85,0,.19.69,23.88-.48,48-.56,11.56,1.45,45.43,1.07,46.3l40.09-26.18C372.26,288.35,359,249.33,353,238.06Z" style="fill:#A62B1F"></path><path d="M215.28,222.65a31.64,31.64,0,0,0-27.05,10.07c-11.64,12.74-42.48,66.77-42.48,66.77L194,320.08s23.1-44,23.53-46S229.44,239.05,215.28,222.65Z" style="fill:#A62B1F"></path><path d="M330.92,221.21c-13.25-4.24-17.68-4.8-32.55-7.84-17.34,8.3-31.19,10.63-50.32-1.57l-47.72,12.68-8.62,185.44H334.83S334.07,228.61,330.92,221.21Z" style="fill:#A62B1F"></path><rect x="252.93" y="272.83" width="28.02" height="81.1" style="fill:#fff"></rect><path d="M300.3,213.76l-11,185.46,46.51-2.05-2.1-83.11,2.1-90.75S327.46,218.18,300.3,213.76Z" style="fill:#455a64"></path><path d="M333.85,274.44a1.47,1.47,0,0,1,0,.49c0,.38,0,.85,0,1.41v5.17c0,4.45-.05,10.45-.09,17.08s0,12.63,0,17.07c0,2.13,0,3.88,0,5.18,0,.56,0,1,0,1.41a1.72,1.72,0,0,1,0,.49,1.78,1.78,0,0,1-.07-.49c0-.38-.05-.85-.08-1.41-.07-1.22-.12-3-.18-5.17-.11-4.37-.16-10.41-.13-17.08s.13-12.71.24-17.08c.07-2.12.13-3.87.17-5.18,0-.56,0-1,.07-1.4A3.26,3.26,0,0,1,333.85,274.44Z" style="fill:#263238"></path><path d="M304.06,291.32a3.2,3.2,0,0,1,0,.52l0,1.47c0,1.32,0,3.17.06,5.51,0,4.75.07,11.44.12,19.44l-.12-.2,14.78,8-.29,0,7.51-6.06,2.48-2-.1.2c.08-9.27.15-17.89.22-25.24l.2.22-18-1.34-5.07-.41-1.35-.11-.48-.06h.43l1.31.07,5,.29L329,292.8l.21,0V293c0,7.34-.09,16-.14,25.23v.12l-.09.08-2.49,2-7.51,6-.13.11-.15-.09L304,318.46l-.12-.07v-.13c.05-8.06.09-14.81.12-19.59,0-2.32.05-4.15.06-5.46,0-.59,0-1.06,0-1.42A2.23,2.23,0,0,1,304.06,291.32Z" style="fill:#263238"></path><path d="M303.54,261.91l-2.07.59,2,.5a3.61,3.61,0,0,1,2.59,2.5l.59,2.09.71-2.21a3.64,3.64,0,0,1,2.52-2.37l1.94-.51-2.09-.6a3.59,3.59,0,0,1-2.47-2.44l-.61-2.06-.59,2.05A3.58,3.58,0,0,1,303.54,261.91Z" style="fill:#ebebeb"></path><path d="M300.29,282l-1.27.35,1.21.31a2.2,2.2,0,0,1,1.58,1.53l.37,1.29.43-1.36a2.2,2.2,0,0,1,1.55-1.45l1.18-.32-1.27-.36a2.19,2.19,0,0,1-1.52-1.5l-.37-1.26-.36,1.26A2.21,2.21,0,0,1,300.29,282Z" style="fill:#ebebeb"></path><path d="M301.9,243.84l-1.28.36,1.22.31a2.17,2.17,0,0,1,1.58,1.53l.37,1.28.43-1.36a2.2,2.2,0,0,1,1.55-1.45l1.18-.31-1.27-.37a2.19,2.19,0,0,1-1.52-1.5l-.37-1.26-.36,1.26A2.21,2.21,0,0,1,301.9,243.84Z" style="fill:#ebebeb"></path><path d="M310.85,252.59l-.64.18.61.16a1.13,1.13,0,0,1,.8.77l.18.64.22-.68a1.11,1.11,0,0,1,.77-.73l.6-.16-.64-.18a1.1,1.1,0,0,1-.76-.76l-.19-.63-.18.63A1.11,1.11,0,0,1,310.85,252.59Z" style="fill:#ebebeb"></path><path d="M305.39,275l-.64.17.61.16a1.11,1.11,0,0,1,.8.77l.18.65.22-.68a1.14,1.14,0,0,1,.78-.74l.6-.16-.65-.18a1.1,1.1,0,0,1-.76-.75l-.19-.64-.18.64A1.15,1.15,0,0,1,305.39,275Z" style="fill:#ebebeb"></path><path d="M330.08,375.31a8.49,8.49,0,0,1-.91-1.13c-.56-.74-1.34-1.84-2.28-3.21-1.88-2.74-4.36-6.61-6.88-11s-4.58-8.52-6-11.54c-.7-1.51-1.25-2.74-1.6-3.6a7.88,7.88,0,0,1-.51-1.35,7.46,7.46,0,0,1,.69,1.27c.46.92,1.05,2.1,1.75,3.52,1.48,3,3.6,7,6.1,11.44s4.94,8.29,6.74,11.07l2.14,3.3A7.4,7.4,0,0,1,330.08,375.31Z" style="fill:#263238"></path><path d="M328.9,300a27.78,27.78,0,0,1-3.63-.22c-2.24-.19-5.32-.43-8.74-.62s-6.51-.29-8.75-.35a26.59,26.59,0,0,1-3.64-.18,4.17,4.17,0,0,1,1-.11c.63,0,1.53-.06,2.66-.08,2.25,0,5.35,0,8.78.2s6.52.49,8.75.77c1.11.14,2,.27,2.63.38A3.91,3.91,0,0,1,328.9,300Z" style="fill:#263238"></path><g style="opacity:0.30000000000000004"><path d="M304.6,318.55s10.79,15.07,14.72,11.94,9.49-12.23,9.49-12.23l-10,8.06Z"></path></g><g style="opacity:0.30000000000000004"><polygon points="192.24 397.17 192.07 402.15 249.77 405.4 241.78 258.16 192.24 397.17"></polygon></g><path d="M194.05,227.71,195.19,335l-2.95,62.22,52.28,4.21-1.31-103.82L240.59,213S202.64,219.37,194.05,227.71Z" style="fill:#455a64"></path><path d="M194.71,262.65a4.9,4.9,0,0,1,.07.71c0,.51.08,1.19.13,2,.1,1.77.19,4.32.29,7.48.18,6.33.29,15.07.24,24.71s-.18,18.39-.34,24.72c-.1,3.11-.18,5.65-.23,7.48,0,.84-.07,1.52-.1,2a4.09,4.09,0,0,1-.06.7,3.51,3.51,0,0,1,0-.71v-2c0-1.83,0-4.37.06-7.49.05-6.38.12-15.08.19-24.71s0-18.38-.09-24.7c-.05-3.11-.09-5.66-.13-7.48,0-.85,0-1.52,0-2A3.2,3.2,0,0,1,194.71,262.65Z" style="fill:#263238"></path><path d="M232.58,262.67l2.08.58-2,.51a3.61,3.61,0,0,0-2.59,2.5l-.59,2.09-.71-2.21a3.62,3.62,0,0,0-2.52-2.37l-1.94-.52,2.09-.59a3.6,3.6,0,0,0,2.48-2.44l.6-2.06.59,2A3.62,3.62,0,0,0,232.58,262.67Z" style="fill:#ebebeb"></path><path d="M235.84,282.72l1.27.35-1.22.31a2.2,2.2,0,0,0-1.58,1.53l-.37,1.28-.43-1.35a2.2,2.2,0,0,0-1.54-1.45l-1.19-.32,1.28-.36a2.21,2.21,0,0,0,1.51-1.5l.37-1.26.37,1.26A2.21,2.21,0,0,0,235.84,282.72Z" style="fill:#ebebeb"></path><path d="M234.23,244.6l1.27.35-1.22.31a2.22,2.22,0,0,0-1.58,1.53l-.37,1.29-.43-1.36a2.2,2.2,0,0,0-1.54-1.45l-1.19-.32,1.28-.36a2.21,2.21,0,0,0,1.51-1.5l.37-1.26.37,1.26A2.21,2.21,0,0,0,234.23,244.6Z" style="fill:#ebebeb"></path><path d="M225,250.86l-.64.18.61.16a1.11,1.11,0,0,1,.8.77l.18.64.22-.68a1.14,1.14,0,0,1,.78-.73l.6-.16-.65-.18a1.1,1.1,0,0,1-.76-.75l-.19-.64-.18.63A1.11,1.11,0,0,1,225,250.86Z" style="fill:#ebebeb"></path><path d="M222.38,274.86l-.65.18.62.15a1.1,1.1,0,0,1,.79.77l.19.65.22-.68a1.12,1.12,0,0,1,.77-.74l.6-.15-.64-.19a1.12,1.12,0,0,1-.77-.75l-.18-.64-.18.64A1.15,1.15,0,0,1,222.38,274.86Z" style="fill:#ebebeb"></path><path d="M217.83,338a11.51,11.51,0,0,1-.64,1.54c-.44,1-1.1,2.38-1.94,4.1-1.69,3.45-4.12,8.16-7,13.25s-5.67,9.6-7.76,12.82c-1,1.61-1.9,2.9-2.52,3.78a9.76,9.76,0,0,1-1,1.33,9.74,9.74,0,0,1,.82-1.44l2.38-3.87c2-3.26,4.74-7.79,7.62-12.88s5.36-9.75,7.13-13.15l2.09-4A10.38,10.38,0,0,1,217.83,338Z" style="fill:#263238"></path></g></svg>
